<svg width="50" height="50" viewBox="0 0 50 50" fill="none" xmlns="http://www.w3.org/2000/svg">
<path d="M47.4472 13.2837C46.907 11.2756 45.3237 9.69257 43.3159 9.15184C39.6478 8.14819 24.975 8.14819 24.975 8.14819C24.975 8.14819 10.3028 8.14819 6.63471 9.11379C4.66547 9.65395 3.04356 11.2759 2.50339 13.2837C1.53809 16.9516 1.53809 24.5582 1.53809 24.5582C1.53809 24.5582 1.53809 32.2031 2.50339 35.8326C3.04413 37.8405 4.62685 39.4235 6.635 39.9642C10.3415 40.9681 24.9756 40.9681 24.9756 40.9681C24.9756 40.9681 39.6478 40.9681 43.3159 40.0025C45.324 39.4621 46.907 37.8791 47.4478 35.8712C48.4128 32.2031 48.4128 24.5968 48.4128 24.5968C48.4128 24.5968 48.4514 16.9516 47.4472 13.2837ZM20.3035 31.5854V17.5309L32.5046 24.5582L20.3035 31.5854Z" fill="white"/>
</svg>
