<svg width="50" height="50" viewBox="0 0 50 50" fill="none" xmlns="http://www.w3.org/2000/svg">
<g opacity="0.7">
<path d="M22.6953 24.893C18.357 23.193 17.8699 20.0492 17.8516 19.9074C17.8286 19.7276 17.7352 19.5642 17.5918 19.4532C17.4484 19.3423 17.2668 19.2929 17.0869 19.3158C16.9071 19.3388 16.7437 19.4322 16.6328 19.5756C16.5218 19.719 16.4724 19.9006 16.4953 20.0804C16.516 20.2457 17.0605 24.1531 22.1984 26.166C22.3659 26.2257 22.55 26.2177 22.7117 26.1439C22.8734 26.0701 23 25.9362 23.0647 25.7706C23.1293 25.605 23.1269 25.4207 23.0579 25.2569C22.989 25.093 22.8589 24.9625 22.6953 24.893Z" fill="white"/>
<path d="M31.2754 11.7395L27.3629 11.1719L25.6133 7.62659C25.5568 7.51216 25.4695 7.41581 25.3612 7.34844C25.2528 7.28107 25.1278 7.24536 25.0002 7.24536C24.8726 7.24536 24.7476 7.28107 24.6392 7.34844C24.5309 7.41581 24.4435 7.51216 24.3871 7.62659L22.6371 11.1719L18.7246 11.7395C18.5984 11.7578 18.4798 11.8111 18.3823 11.8933C18.2847 11.9755 18.2121 12.0834 18.1727 12.2047C18.1333 12.326 18.1286 12.456 18.1592 12.5798C18.1897 12.7036 18.2544 12.8165 18.3457 12.9055L21.177 15.6641L20.5078 19.5621C20.4862 19.6878 20.5003 19.8171 20.5483 19.9352C20.5964 20.0534 20.6765 20.1558 20.7797 20.2307C20.8829 20.3057 21.005 20.3503 21.1322 20.3595C21.2594 20.3688 21.3867 20.3422 21.4996 20.2828L25 18.443L28.4996 20.2828C28.6125 20.3424 28.7399 20.3691 28.8672 20.36C28.9946 20.3509 29.1168 20.3064 29.2202 20.2313C29.3235 20.1563 29.4037 20.0539 29.4518 19.9356C29.4999 19.8173 29.5139 19.688 29.4922 19.5621L28.823 15.6641L31.6543 12.9047C31.7455 12.8156 31.81 12.7028 31.8405 12.579C31.8709 12.4552 31.8662 12.3253 31.8268 12.2041C31.7874 12.0828 31.7149 11.975 31.6175 11.8928C31.52 11.8105 31.4015 11.7572 31.2754 11.7387V11.7395ZM27.6109 14.9371C27.5318 15.0146 27.4727 15.1102 27.4387 15.2156C27.4047 15.321 27.3968 15.4331 27.4156 15.5422L27.9109 18.4281L25.3191 17.0656C25.2211 17.014 25.1119 16.9869 25.001 16.9869C24.8901 16.9869 24.7809 17.014 24.6828 17.0656L22.091 18.4281L22.5859 15.5422C22.6049 15.4331 22.597 15.321 22.563 15.2156C22.5289 15.1102 22.4698 15.0146 22.3906 14.9371L20.2937 12.8934L23.191 12.4723C23.3007 12.4563 23.405 12.414 23.4946 12.3488C23.5843 12.2836 23.6568 12.1975 23.7059 12.0981L25 9.47268L26.2957 12.0985C26.3447 12.1978 26.4172 12.2838 26.5068 12.349C26.5964 12.4142 26.7005 12.4566 26.8102 12.4727L29.7078 12.8938L27.6109 14.9371Z" fill="white"/>
<path d="M42.5156 7.58672C42.4289 7.18862 42.2091 6.83198 41.8923 6.57574C41.5756 6.31949 41.1809 6.17895 40.7734 6.17734H36.4539V3.90625C36.4539 3.72495 36.3819 3.55107 36.2537 3.42288C36.1255 3.29468 35.9516 3.22266 35.7703 3.22266H14.2297C14.0484 3.22266 13.8745 3.29468 13.7463 3.42288C13.6181 3.55107 13.5461 3.72495 13.5461 3.90625V6.17734H9.22656C8.81908 6.17897 8.42435 6.31956 8.10758 6.57589C7.79082 6.83221 7.57097 7.18893 7.48437 7.58711C6.88195 11.1255 7.60186 14.7619 9.50703 17.8039C10.8062 19.7645 12.5637 21.3788 14.6273 22.507C15.3173 23.9743 16.3097 25.2791 17.5392 26.336C18.7688 27.3929 20.2079 28.178 21.7621 28.6398V31.3594C21.7621 31.5407 21.8341 31.7145 21.9623 31.8427C22.0905 31.9709 22.2644 32.043 22.4457 32.043H22.7082V36.2305H18.4266C18.2453 36.2305 18.0714 36.3025 17.9432 36.4307C17.815 36.5589 17.743 36.7328 17.743 36.9141V41.2648C16.5797 41.4306 15.5151 42.0101 14.7443 42.8969C13.9735 43.7838 13.5481 44.9187 13.5461 46.0938C13.5461 46.2751 13.6181 46.4489 13.7463 46.5771C13.8745 46.7053 14.0484 46.7773 14.2297 46.7773H35.7703C35.9516 46.7773 36.1255 46.7053 36.2537 46.5771C36.3819 46.4489 36.4539 46.2751 36.4539 46.0938C36.4519 44.9187 36.0265 43.7838 35.2557 42.8969C34.4849 42.0101 33.4203 41.4306 32.257 41.2648V36.9141C32.257 36.7328 32.185 36.5589 32.0568 36.4307C31.9286 36.3025 31.7547 36.2305 31.5734 36.2305H27.2918V32.0441H27.5543C27.7356 32.0441 27.9095 31.9721 28.0377 31.8439C28.1659 31.7157 28.2379 31.5418 28.2379 31.3605V28.6406C29.7921 28.1788 31.2312 27.3937 32.4608 26.3368C33.6903 25.2799 34.6827 23.9751 35.3727 22.5078C37.4363 21.3797 39.1937 19.7653 40.4926 17.8047C42.4 14.7632 43.1202 11.1256 42.5156 7.58672ZM36.4539 9.73945H39.1715C39.2788 12.485 38.3028 15.1628 36.4539 17.1953V9.73945ZM10.8289 9.73945H13.5469V17.1957C11.6974 15.1634 10.7209 12.4856 10.8281 9.73984L10.8289 9.73945ZM10.6547 17.059C8.93616 14.3256 8.28402 11.0553 8.82266 7.87188C8.84276 7.77928 8.89387 7.69633 8.96753 7.63673C9.04119 7.57714 9.13299 7.54447 9.22773 7.54414H13.5461V8.37227H10.1828C10.0116 8.37222 9.84665 8.43641 9.72051 8.55214C9.59437 8.66786 9.51624 8.82671 9.50156 8.99727C9.31828 10.9021 9.59994 12.8229 10.3224 14.5948C11.0448 16.3668 12.1864 17.937 13.6492 19.1707C13.7043 19.5888 13.7825 20.0035 13.8836 20.4129C12.6085 19.5049 11.5133 18.3677 10.6539 17.0594L10.6547 17.059ZM35.0199 45.4102H14.9809C15.1401 44.6125 15.5706 43.8946 16.1991 43.3783C16.8277 42.8621 17.6155 42.5793 18.4289 42.5781H31.5711C32.3846 42.5792 33.1727 42.8618 33.8014 43.3781C34.4301 43.8944 34.8606 44.6124 35.0199 45.4102ZM30.8898 41.2109H19.1102V37.5977H30.8898V41.2109ZM25.9246 36.2305H24.0754V32.0441H25.9246V36.2305ZM26.8707 30.677H23.1293V28.9543C24.3678 29.1613 25.6322 29.1613 26.8707 28.9543V30.677ZM25 27.7426C22.3259 27.7395 19.7621 26.6758 17.8712 24.785C15.9802 22.8941 14.9165 20.3304 14.9133 17.6562V4.58984H35.0867V17.6562C35.0835 20.3304 34.0198 22.8941 32.1288 24.785C30.2379 26.6758 27.6741 27.7395 25 27.7426ZM39.3461 17.0594C38.4868 18.3676 37.3917 19.5046 36.1168 20.4125C36.2179 20.0031 36.2961 19.5884 36.3512 19.1703C40.577 15.6367 40.6637 10.8945 40.4988 8.99687C40.4842 8.82635 40.4062 8.66751 40.2801 8.55178C40.154 8.43604 39.9891 8.37184 39.818 8.37187H36.4547V7.54453H40.7734C40.8682 7.54494 40.9599 7.57763 41.0336 7.63721C41.1072 7.69679 41.1583 7.77971 41.1785 7.87227C41.7189 11.0558 41.0665 14.3268 39.3461 17.0594Z" fill="white"/>
</g>
</svg>
