<svg width="50" height="50" viewBox="0 0 50 50" fill="none" xmlns="http://www.w3.org/2000/svg">
<path d="M45.8256 1.53809H4.12331C2.69537 1.53894 1.5378 2.69709 1.53809 4.1256V45.8279C1.53894 47.2558 2.69709 48.4134 4.1256 48.4131H26.5778V30.2856H20.4895V23.1903H26.5778V17.9687C26.5778 11.9133 30.2745 8.6174 35.6761 8.6174C38.2633 8.6174 40.4866 8.81023 41.1346 8.89635V15.2252H37.4099C34.471 15.2252 33.902 16.6217 33.902 18.6713V23.1903H40.9286L40.0131 30.2856H33.902V48.4131H45.8256C47.2544 48.4134 48.4128 47.2555 48.4131 45.8267C48.4131 45.8264 48.4131 45.8261 48.4131 45.8256V4.12331C48.4125 2.69537 47.2541 1.5378 45.8256 1.53809Z" fill="white"/>
</svg>
