<svg width="50" height="50" viewBox="0 0 50 50" fill="none" xmlns="http://www.w3.org/2000/svg">
<g opacity="0.7">
<path d="M38.8672 8.41803H32.5109V7.17232C32.5109 6.99102 32.4389 6.81715 32.3107 6.68895C32.1825 6.56075 32.0086 6.48873 31.8273 6.48873H28.8906C28.7296 5.57379 28.2514 4.74485 27.5398 4.14758C26.8283 3.5503 25.929 3.2229 25 3.2229C24.071 3.2229 23.1717 3.5503 22.4602 4.14758C21.7486 4.74485 21.2704 5.57379 21.1094 6.48873H18.1727C17.9914 6.48873 17.8175 6.56075 17.6893 6.68895C17.5611 6.81715 17.4891 6.99102 17.4891 7.17232V8.41803H11.1328C10.9515 8.41803 10.7776 8.49005 10.6494 8.61825C10.5212 8.74645 10.4492 8.92032 10.4492 9.10162V46.0938C10.4492 46.2751 10.5212 46.449 10.6494 46.5772C10.7776 46.7054 10.9515 46.7774 11.1328 46.7774H38.8672C39.0485 46.7774 39.2224 46.7054 39.3506 46.5772C39.4788 46.449 39.5508 46.2751 39.5508 46.0938V9.10162C39.5508 8.92032 39.4788 8.74645 39.3506 8.61825C39.2224 8.49005 39.0485 8.41803 38.8672 8.41803ZM18.8562 7.85592H21.734C21.9153 7.85592 22.0892 7.7839 22.2174 7.6557C22.3456 7.5275 22.4176 7.35362 22.4176 7.17232C22.4176 6.48737 22.6897 5.83047 23.174 5.34614C23.6583 4.8618 24.3152 4.58971 25.0002 4.58971C25.6851 4.58971 26.342 4.8618 26.8264 5.34614C27.3107 5.83047 27.5828 6.48737 27.5828 7.17232C27.5828 7.35362 27.6548 7.5275 27.783 7.6557C27.9112 7.7839 28.0851 7.85592 28.2664 7.85592H31.1437V12.6083H18.8562V7.85592ZM14.6023 9.78521H17.4891V13.2922C17.4891 13.4735 17.5611 13.6474 17.6893 13.7756C17.8175 13.9038 17.9914 13.9758 18.1727 13.9758H31.8273C32.0086 13.9758 32.1825 13.9038 32.3107 13.7756C32.4389 13.6474 32.5109 13.4735 32.5109 13.2922V9.78521H35.398V42.7469H14.6023V9.78521ZM38.1836 45.4102H11.8164V9.78521H13.2352V43.4305C13.2352 43.6118 13.3072 43.7857 13.4354 43.9139C13.5636 44.0421 13.7374 44.1141 13.9188 44.1141H36.0812C36.2625 44.1141 36.4364 44.0421 36.5646 43.9139C36.6928 43.7857 36.7648 43.6118 36.7648 43.4305V9.78521H38.1836V45.4102Z" fill="white"/>
<path d="M25 5.55701C24.6805 5.55701 24.3683 5.65173 24.1026 5.8292C23.837 6.00666 23.63 6.25891 23.5077 6.55403C23.3855 6.84915 23.3535 7.1739 23.4158 7.48721C23.4781 7.80053 23.6318 8.08834 23.8577 8.31425C24.0836 8.54016 24.3713 8.69402 24.6846 8.75639C24.9979 8.81876 25.3227 8.78683 25.6178 8.66464C25.913 8.54244 26.1653 8.33547 26.3428 8.0699C26.5203 7.80433 26.6151 7.49208 26.6152 7.17263C26.6148 6.74434 26.4445 6.33369 26.1417 6.03081C25.8389 5.72792 25.4283 5.55752 25 5.55701ZM25 7.42185C24.9509 7.42185 24.903 7.4073 24.8622 7.38005C24.8214 7.35279 24.7896 7.31405 24.7708 7.26873C24.752 7.2234 24.7471 7.17353 24.7567 7.12541C24.7663 7.0773 24.7899 7.0331 24.8246 6.99841C24.8593 6.96372 24.9035 6.94009 24.9516 6.93052C24.9997 6.92095 25.0496 6.92586 25.0949 6.94464C25.1402 6.96341 25.179 6.99521 25.2062 7.036C25.2335 7.07679 25.248 7.12474 25.248 7.1738C25.2479 7.23956 25.2218 7.30259 25.1753 7.34909C25.1288 7.39558 25.0657 7.42175 25 7.42185Z" fill="white"/>
<path d="M20.2129 17.6711L18.4188 19.5184L17.5984 18.9027C17.4534 18.794 17.2711 18.7473 17.0916 18.7729C16.9121 18.7985 16.7502 18.8944 16.6414 19.0395C16.5326 19.1845 16.4859 19.3668 16.5116 19.5463C16.5372 19.7258 16.6331 19.8877 16.7781 19.9965L18.0801 20.9731C18.2131 21.0727 18.3779 21.1205 18.5436 21.1074C18.7093 21.0944 18.8646 21.0215 18.9805 20.9024L21.1941 18.6234C21.3205 18.4934 21.39 18.3184 21.3873 18.1371C21.3847 17.9558 21.3102 17.783 21.1801 17.6567C21.05 17.5303 20.8751 17.4608 20.6938 17.4635C20.5125 17.4661 20.3396 17.5406 20.2133 17.6707L20.2129 17.6711Z" fill="white"/>
<path d="M32.8125 18.6035H23.1934C23.0121 18.6035 22.8382 18.6755 22.71 18.8037C22.5818 18.9319 22.5098 19.1058 22.5098 19.2871C22.5098 19.4684 22.5818 19.6423 22.71 19.7705C22.8382 19.8987 23.0121 19.9707 23.1934 19.9707H32.8125C32.9938 19.9707 33.1677 19.8987 33.2959 19.7705C33.4241 19.6423 33.4961 19.4684 33.4961 19.2871C33.4961 19.1058 33.4241 18.9319 33.2959 18.8037C33.1677 18.6755 32.9938 18.6035 32.8125 18.6035Z" fill="white"/>
<path d="M20.2129 23.384L18.4188 25.2313L17.5984 24.6157C17.4534 24.5069 17.2711 24.4602 17.0916 24.4858C16.9121 24.5115 16.7502 24.6073 16.6414 24.7524C16.5326 24.8974 16.4859 25.0797 16.5116 25.2592C16.5372 25.4387 16.6331 25.6006 16.7781 25.7094L18.0801 26.686C18.2131 26.7856 18.3779 26.8334 18.5436 26.8204C18.7093 26.8074 18.8646 26.7345 18.9805 26.6153L21.1934 24.336C21.3197 24.2059 21.3892 24.031 21.3866 23.8497C21.3839 23.6684 21.3094 23.4955 21.1793 23.3692C21.0492 23.2428 20.8743 23.1733 20.693 23.176C20.5117 23.1786 20.3388 23.2532 20.2125 23.3832L20.2129 23.384Z" fill="white"/>
<path d="M32.8125 24.3164H23.1934C23.0121 24.3164 22.8382 24.3884 22.71 24.5166C22.5818 24.6448 22.5098 24.8187 22.5098 25C22.5098 25.1813 22.5818 25.3552 22.71 25.4834C22.8382 25.6116 23.0121 25.6836 23.1934 25.6836H32.8125C32.9938 25.6836 33.1677 25.6116 33.2959 25.4834C33.4241 25.3552 33.4961 25.1813 33.4961 25C33.4961 24.8187 33.4241 24.6448 33.2959 24.5166C33.1677 24.3884 32.9938 24.3164 32.8125 24.3164Z" fill="white"/>
<path d="M20.2129 29.0969L18.4188 30.9441L17.5984 30.3285C17.4534 30.2197 17.2711 30.173 17.0916 30.1987C16.9121 30.2243 16.7502 30.3202 16.6414 30.4652C16.5326 30.6103 16.4859 30.7926 16.5116 30.9721C16.5372 31.1516 16.6331 31.3135 16.7781 31.4223L18.0801 32.3988C18.2131 32.4985 18.3779 32.5462 18.5436 32.5332C18.7093 32.5202 18.8646 32.4473 18.9805 32.3281L21.1941 30.0492C21.3205 29.9192 21.39 29.7442 21.3873 29.5629C21.3847 29.3816 21.3102 29.2088 21.1801 29.0824C21.05 28.9561 20.8751 28.8866 20.6938 28.8892C20.5125 28.8919 20.3396 28.9664 20.2133 29.0965L20.2129 29.0969Z" fill="white"/>
<path d="M32.8125 30.0293H23.1934C23.0121 30.0293 22.8382 30.1013 22.71 30.2295C22.5818 30.3577 22.5098 30.5316 22.5098 30.7129C22.5098 30.8942 22.5818 31.0681 22.71 31.1963C22.8382 31.3245 23.0121 31.3965 23.1934 31.3965H32.8125C32.9938 31.3965 33.1677 31.3245 33.2959 31.1963C33.4241 31.0681 33.4961 30.8942 33.4961 30.7129C33.4961 30.5316 33.4241 30.3577 33.2959 30.2295C33.1677 30.1013 32.9938 30.0293 32.8125 30.0293Z" fill="white"/>
<path d="M20.2129 34.8098L18.4187 36.657L17.5984 36.0414C17.5266 35.9876 17.4449 35.9484 17.3579 35.9261C17.271 35.9038 17.1805 35.8989 17.0916 35.9116C17.0027 35.9243 16.9172 35.9543 16.84 36.0001C16.7627 36.0458 16.6953 36.1063 16.6414 36.1781C16.5875 36.2499 16.5484 36.3317 16.5261 36.4186C16.5038 36.5056 16.4989 36.5961 16.5116 36.685C16.5243 36.7738 16.5543 36.8593 16.6001 36.9366C16.6458 37.0138 16.7063 37.0813 16.7781 37.1352L18.0801 38.1117C18.2131 38.2114 18.3779 38.2591 18.5436 38.2461C18.7093 38.2331 18.8646 38.1602 18.9805 38.041L21.1941 35.7621C21.2567 35.6977 21.306 35.6216 21.3391 35.5382C21.3723 35.4547 21.3886 35.3656 21.3873 35.2758C21.386 35.186 21.3671 35.0974 21.3315 35.015C21.2959 34.9325 21.2445 34.8579 21.1801 34.7953C21.1157 34.7328 21.0396 34.6835 20.9561 34.6504C20.8727 34.6172 20.7835 34.6008 20.6938 34.6021C20.604 34.6034 20.5154 34.6224 20.4329 34.658C20.3505 34.6935 20.2758 34.745 20.2133 34.8094L20.2129 34.8098Z" fill="white"/>
<path d="M32.8125 35.7422H23.1934C23.0121 35.7422 22.8382 35.8142 22.71 35.9424C22.5818 36.0706 22.5098 36.2445 22.5098 36.4258C22.5098 36.6071 22.5818 36.781 22.71 36.9092C22.8382 37.0374 23.0121 37.1094 23.1934 37.1094H32.8125C32.9938 37.1094 33.1677 37.0374 33.2959 36.9092C33.4241 36.781 33.4961 36.6071 33.4961 36.4258C33.4961 36.2445 33.4241 36.0706 33.2959 35.9424C33.1677 35.8142 32.9938 35.7422 32.8125 35.7422Z" fill="white"/>
</g>
</svg>
