<svg width="50" height="50" viewBox="0 0 50 50" fill="none" xmlns="http://www.w3.org/2000/svg">
<g opacity="0.7">
<path d="M17.0785 15.5199C16.8432 15.1929 16.5309 14.929 16.1693 14.7516C15.8077 14.5741 15.4078 14.4886 15.0053 14.5026C14.6027 14.5165 14.2097 14.6296 13.8613 14.8317C13.5128 15.0338 13.2196 15.3187 13.0075 15.6612C12.7954 16.0037 12.6711 16.3932 12.6455 16.7952C12.62 17.1972 12.6939 17.5993 12.8609 17.9659C13.0278 18.3325 13.2826 18.6523 13.6026 18.8969C13.9227 19.1415 14.2981 19.3035 14.6957 19.3683C14.8277 19.3899 14.9612 19.4007 15.0949 19.4008C15.5453 19.3995 15.9866 19.2742 16.3704 19.0386C16.7542 18.803 17.0656 18.4662 17.2705 18.0651C17.4754 17.6641 17.5659 17.2144 17.5319 16.7653C17.498 16.3162 17.341 15.8852 17.0781 15.5195L17.0785 15.5199ZM15.7219 17.8293C15.5481 17.9542 15.3413 18.0247 15.1274 18.0321C14.9136 18.0394 14.7024 17.9832 14.5205 17.8705C14.3386 17.7578 14.1942 17.5938 14.1056 17.399C14.0169 17.2043 13.988 16.9876 14.0224 16.7765C14.0569 16.5653 14.1531 16.3691 14.2991 16.2126C14.445 16.0562 14.6341 15.9465 14.8424 15.8974C15.0506 15.8484 15.2688 15.8622 15.4692 15.9371C15.6696 16.0121 15.8433 16.1447 15.9684 16.3183C16.1359 16.5515 16.204 16.8416 16.1578 17.125C16.1116 17.4084 15.9548 17.6618 15.7219 17.8297V17.8293Z" fill="white"/>
<path d="M32.1984 43.0516C32.3018 43.0684 32.4063 43.0769 32.5109 43.077C33.0082 43.0768 33.4861 42.8843 33.8447 42.5397C34.2033 42.1952 34.4147 41.7253 34.4348 41.2285C34.4548 40.7316 34.2819 40.2462 33.9523 39.8739C33.6226 39.5016 33.1618 39.2712 32.6662 39.2309C32.1705 39.1907 31.6785 39.3436 31.2931 39.6579C30.9077 39.9721 30.6587 40.4232 30.5983 40.9167C30.5378 41.4103 30.6706 41.9082 30.9689 42.3061C31.2671 42.704 31.7077 42.9711 32.1984 43.0516ZM32.184 40.7043C32.3034 40.6194 32.4516 40.5853 32.5962 40.6093C32.7407 40.6333 32.8699 40.7135 32.9555 40.8324C33.0411 40.9514 33.0762 41.0993 33.053 41.244C33.0299 41.3887 32.9505 41.5184 32.832 41.6047C32.7126 41.6906 32.5639 41.7255 32.4187 41.7018C32.2735 41.678 32.1437 41.5976 32.0578 41.4781C31.9719 41.3587 31.937 41.21 31.9608 41.0648C31.9845 40.9196 32.0649 40.7898 32.1844 40.7039L32.184 40.7043Z" fill="white"/>
<path d="M33.1133 25.0781C33.0075 25.2253 32.9646 25.4085 32.9939 25.5874C33.0232 25.7663 33.1223 25.9262 33.2695 26.032L35.6578 27.7508C35.7741 27.8345 35.9137 27.8796 36.057 27.8797C36.0938 27.8797 36.1305 27.8767 36.1668 27.8707C36.3459 27.8416 36.506 27.7425 36.6121 27.5953L46.6512 13.6477C46.7569 13.5004 46.7999 13.3172 46.7706 13.1384C46.7413 12.9595 46.6421 12.7995 46.4949 12.6938L35.2668 4.61563C35.1195 4.50986 34.9362 4.4669 34.7573 4.4962C34.5783 4.5255 34.4184 4.62466 34.3125 4.77188L25 17.7121L15.6875 4.77149C15.5816 4.62427 15.4216 4.52511 15.2427 4.49581C15.0637 4.46651 14.8805 4.50947 14.7332 4.61524L3.50703 12.6953C3.35983 12.8011 3.26068 12.961 3.23138 13.1399C3.20208 13.3188 3.24503 13.502 3.35078 13.6492L13.3898 27.5969C13.4959 27.7441 13.6561 27.8431 13.8352 27.8723C13.8714 27.8783 13.9081 27.8813 13.9449 27.8812C14.0882 27.8812 14.2279 27.8361 14.3441 27.7523L16.7324 26.0336C16.8796 25.9278 16.9788 25.7679 17.0081 25.589C17.0374 25.4101 16.9944 25.2269 16.8887 25.0797C16.5903 24.6931 16.4038 24.232 16.3495 23.7466C16.2951 23.2613 16.375 22.7704 16.5805 22.3273L22.2266 30.6461L19.7867 33.8492C18.7275 35.2779 17.3281 36.4192 15.7156 37.1695C15.0221 37.4786 14.4212 37.9632 13.9722 38.5755C13.5231 39.1878 13.2416 39.9065 13.1552 40.6609C13.0689 41.4152 13.1807 42.1791 13.4798 42.877C13.7788 43.5749 14.2547 44.1827 14.8604 44.6406C15.4662 45.0984 16.1808 45.3903 16.9338 45.4875C17.6869 45.5847 18.4522 45.4839 19.1544 45.195C19.8565 44.906 20.4712 44.4389 20.9377 43.8399C21.4042 43.2408 21.7064 42.5304 21.8145 41.7789C22.0326 39.9962 22.6493 38.2854 23.6187 36.7734L25 34.7348L26.3793 36.766C27.3504 38.2791 27.9682 39.9916 28.1867 41.7762C28.2947 42.5279 28.5968 43.2384 29.0633 43.8376C29.5298 44.4368 30.1446 44.904 30.8468 45.1931C31.549 45.4821 32.3145 45.583 33.0677 45.4858C33.8208 45.3886 34.5356 45.0967 35.1415 44.6388C35.7473 44.1809 36.2233 43.5729 36.5223 42.8749C36.8214 42.1768 36.9332 41.4129 36.8468 40.6584C36.7604 39.9039 36.4787 39.1851 36.0295 38.5727C35.5803 37.9604 34.9792 37.4758 34.2855 37.1668C32.6747 36.4177 31.2764 35.2781 30.2176 33.8516L27.7734 30.6465L33.4203 22.3262C33.6258 22.7691 33.7059 23.2599 33.6518 23.7451C33.5976 24.2303 33.4114 24.6914 33.1133 25.0781ZM35.9012 26.2418L34.5797 25.2906C34.9706 24.5785 35.1223 23.7596 35.0125 22.9548C34.9026 22.1499 34.537 21.4016 33.9695 20.8203C33.9226 20.7422 31.6301 19.0902 31.5406 19.0711C30.7982 18.6783 29.9375 18.5713 29.1215 18.7703C28.3543 18.9509 27.6548 19.347 27.1055 19.9121L25.8406 19.002C25.8353 18.9718 25.828 18.942 25.8187 18.9129L31.8211 10.5742L41.9383 17.8543L35.9012 26.2418ZM25 27.0055L19.7152 20.0715C20.0003 20.027 20.2914 20.0382 20.5723 20.1043C21.2428 20.2684 21.8306 20.6711 22.2258 21.2371C22.3316 21.3843 22.4916 21.4835 22.6706 21.5128C22.8495 21.5421 23.0328 21.4991 23.1801 21.3934L25 20.0828L26.8195 21.3922C26.9668 21.498 27.1501 21.5409 27.329 21.5116C27.508 21.4823 27.668 21.3832 27.7738 21.2359C28.169 20.6699 28.7568 20.2672 29.4273 20.1031C29.7083 20.0373 29.9993 20.0263 30.2844 20.0707L25 27.0055ZM33.9625 7.59844L44.0797 14.8785L44.0574 14.9094L43.8074 15.2566L33.6902 7.97657L33.7562 7.88516L33.9625 7.59844ZM32.8906 9.08633L43.0078 16.3672L42.9707 16.4188L42.7363 16.7457L32.6191 9.46563L32.8906 9.08633ZM35.0219 6.12461L45.1391 13.4051L44.8769 13.7691L34.7598 6.48907L35.0219 6.12461ZM7.02851 16.418L6.99219 16.3672L17.1094 9.08633L17.3828 9.46446L7.26562 16.7449L7.02851 16.418ZM16.2437 7.88516L16.3098 7.97657L6.19258 15.2566L5.94258 14.9094L5.92031 14.8785L16.0375 7.59844L16.2437 7.88516ZM14.9769 6.12461L15.2391 6.48868L5.12187 13.7688L4.85976 13.4047L14.9769 6.12461ZM15.4207 25.2918L14.0992 26.243L8.0625 17.8547L18.1797 10.5746L24.1797 18.9145C24.1704 18.9436 24.1631 18.9734 24.1578 19.0035L22.893 19.9137C22.3436 19.3486 21.6441 18.9524 20.8769 18.7719C20.0608 18.5724 19.1999 18.6795 18.4574 19.0727C18.368 19.0918 16.0746 20.7422 16.0293 20.8215C15.4621 21.4029 15.0967 22.1513 14.9872 22.9562C14.8776 23.7611 15.0296 24.5799 15.4207 25.2918ZM17.573 21.3562L18.4789 20.7031L24.1406 28.1332L23.0992 29.5004L17.573 21.3562ZM22.4832 36.0082C21.398 37.6914 20.7063 39.5977 20.4598 41.5851C20.3763 42.1656 20.1245 42.7088 19.7355 43.1476C19.252 43.6798 18.5955 44.0233 17.8827 44.1173C17.1698 44.2112 16.4467 44.0496 15.8418 43.6609C15.3921 43.3655 15.0302 42.9545 14.7942 42.471C14.5581 41.9875 14.4565 41.4493 14.5001 40.9131C14.5437 40.3768 14.7308 39.8621 15.0419 39.4231C15.353 38.9841 15.7765 38.6369 16.268 38.418C18.0896 37.5757 19.6714 36.2908 20.8691 34.6805L31.5211 20.7031L32.4273 21.3551L22.4832 36.0082ZM29.1336 34.6848C30.331 36.2933 31.9118 37.5766 33.732 38.418C34.2229 38.6373 34.6457 38.9845 34.9563 39.4233C35.2668 39.8622 35.4537 40.3764 35.4973 40.9123C35.5408 41.4481 35.4395 41.9858 35.2039 42.469C34.9684 42.9523 34.6072 43.3633 34.1582 43.659C33.5533 44.0476 32.8302 44.2093 32.1173 44.1153C31.4045 44.0214 30.748 43.6778 30.2644 43.1457C29.8758 42.7074 29.6241 42.1649 29.5402 41.5851C29.2934 39.5958 28.6008 37.6879 27.5141 36.0035L25.8262 33.5156L26.9648 31.8359L29.1336 34.6848Z" fill="white"/>
<path d="M37.3281 16.5566C37.2527 16.0954 37.0469 15.6654 36.735 15.3174C36.4232 14.9694 36.0182 14.7178 35.5681 14.5925C35.1179 14.4671 34.6412 14.4731 34.1944 14.6099C33.7475 14.7466 33.3491 15.0083 33.0462 15.3641C32.7432 15.72 32.5484 16.155 32.4847 16.618C32.421 17.0809 32.491 17.5524 32.6866 17.9768C32.8821 18.4013 33.195 18.7609 33.5883 19.0133C33.9816 19.2656 34.4389 19.4002 34.9062 19.4011C35.04 19.4011 35.1735 19.3902 35.3055 19.3687C35.9468 19.264 36.5202 18.909 36.8998 18.3815C37.2793 17.8541 37.4338 17.1975 37.3293 16.5562L37.3281 16.5566ZM35.7887 17.5832C35.6424 17.7864 35.4301 17.9326 35.1881 17.9969C34.9461 18.0612 34.6892 18.0396 34.4614 17.9357C34.2335 17.8319 34.0487 17.6523 33.9384 17.4274C33.8281 17.2026 33.7992 16.9465 33.8566 16.7028C33.9139 16.459 34.054 16.2427 34.253 16.0907C34.452 15.9386 34.6975 15.8603 34.9478 15.869C35.198 15.8777 35.4376 15.9729 35.6255 16.1384C35.8134 16.3038 35.9382 16.5294 35.9785 16.7765C36.0018 16.9169 35.9969 17.0604 35.9643 17.1989C35.9316 17.3374 35.8718 17.468 35.7883 17.5832H35.7887Z" fill="white"/>
<path d="M18.6149 39.5946C18.3691 39.4179 18.0851 39.3018 17.786 39.2557C17.4868 39.2096 17.1811 39.2348 16.8935 39.3292C16.606 39.4236 16.3448 39.5846 16.1312 39.7991C15.9177 40.0136 15.7578 40.2755 15.6646 40.5634C15.5714 40.8514 15.5476 41.1573 15.595 41.4562C15.6424 41.7551 15.7597 42.0386 15.9374 42.2836C16.1151 42.5286 16.3482 42.7282 16.6176 42.866C16.8871 43.0039 17.1852 43.0762 17.4879 43.077C17.5926 43.0769 17.6971 43.0684 17.8004 43.0516C18.1756 42.9905 18.5243 42.8195 18.8023 42.5602C19.0803 42.3009 19.2751 41.9649 19.3622 41.5949C19.4493 41.2248 19.4246 40.8372 19.2914 40.4812C19.1581 40.1251 18.9223 39.8166 18.6137 39.5946H18.6149ZM17.9422 41.479C17.8672 41.5832 17.7584 41.6582 17.6343 41.6912C17.5102 41.7242 17.3785 41.7132 17.2616 41.6599C17.1447 41.6067 17.0499 41.5146 16.9933 41.3993C16.9368 41.2841 16.9219 41.1527 16.9513 41.0277C16.9807 40.9027 17.0525 40.7918 17.1545 40.7138C17.2566 40.6358 17.3825 40.5956 17.5108 40.6C17.6391 40.6045 17.762 40.6532 17.8584 40.7381C17.9548 40.8229 18.0188 40.9386 18.0395 41.0653C18.0516 41.1372 18.0492 41.2109 18.0326 41.2819C18.016 41.3529 17.9854 41.4199 17.9426 41.479H17.9422Z" fill="white"/>
</g>
</svg>
